<svg xmlns="http://www.w3.org/2000/svg" xmlns:xlink="http://www.w3.org/1999/xlink" width="118" height="79" viewBox="0 0 118 79"><defs><path id="bfp2a" d="M595.69 967.4h3.55v3.55h-3.55zm74.31 0v18.98h-21.43L645.6 993h-67.42l-2.86-6.62H554V967.4h7.94a50.65 50.65 0 0 1 38.2-41.2V918h23.73v8.2a50.65 50.65 0 0 1 38.19 41.2zm-3.55 15.43v-11.88h-7.5l-.2-1.55a47.1 47.1 0 0 0-34.88-39.54v10.02h-3.55v-18.33h-16.64v26.14h-3.55v-17.83a47.1 47.1 0 0 0-34.59 37.54h25.88v3.55h-33.87v11.88h20.11l2.86 6.62h62.78l2.97-6.62zm-46.13-38.7h3.55v3.56h-3.55zm-37.95 38.7h59.18v3.55h-59.18z"/></defs><g><g transform="translate(-553 -916)"><use fill="#8cc6b6" xlink:href="#bfp2a"/></g></g></svg>