<svg xmlns="http://www.w3.org/2000/svg" xmlns:xlink="http://www.w3.org/1999/xlink" width="127" height="96" viewBox="0 0 127 96"><defs><path id="5chua" d="M1048.62 946.25h3.8v3.78h-3.8zm-52.13-5.22h40.43v3.78H996.5zm0 9.48h40.43v3.77H996.5zm0 26.99h40.43v3.77H996.5zm0 9.04h29.52v3.77h-29.52zm0-55.02h18.2v3.77h-18.2zm22.74 0h3.8v3.77h-3.8zM996.5 959.9h3.8v3.77h-3.8zm8.21 0h26.66v3.77h-26.66zm78.46-16.86l2.68-2.67 2.68 2.67-2.68 2.66zm21.84-16.4l-13.36 13.28-2.68-2.67 4.25-4.22-2.33-2.3-37.97 37.77-2.68-2.67 37.97-37.78-2.32-2.3-37.65 37.45-3.53 10.8 10.86-3.5 24.38-24.27 2.68 2.67-25.02 24.9-5.19 1.67V1007H981v-92.17h71.41v26.9h-3.79V918.6H984.8v84.63h63.83v-26.54l-9.83 3.18 6.12-18.7.32-.33 47.08-46.84zm-9.11 3.73l3.75-3.74-7.33-7.29-3.75 3.74z"/></defs><g><g transform="translate(-980 -912)"><use fill="#8cc6b6" xlink:href="#5chua"/></g></g></svg>