<svg xmlns="http://www.w3.org/2000/svg" xmlns:xlink="http://www.w3.org/1999/xlink" width="18" height="18" viewBox="0 0 18 18"><defs><path id="rreha" d="M400.2 67c1 0 1.8.73 1.8 1.8v10.4c0 1.07-.8 1.8-1.8 1.8h-10.4c-1 0-1.8-.73-1.8-1.8V68.8c0-1.07.8-1.8 1.8-1.8zm-2.63 2.19v1.5c0 .35.28.63.63.63h1.58c.35 0 .63-.28.63-.63v-1.5a.63.63 0 0 0-.63-.63h-1.58a.63.63 0 0 0-.63.63zm1.62 3.73c.11.38.18.78.18 1.2a4.29 4.29 0 0 1-4.36 4.22 4.29 4.29 0 0 1-4.35-4.22c0-.42.06-.82.18-1.2h-1.28v5.91c0 .31.25.56.55.56h9.75c.3 0 .56-.25.56-.56v-5.91zM395 71.24a2.77 2.77 0 0 0-2.8 2.73c0 1.5 1.25 2.72 2.8 2.72a2.77 2.77 0 0 0 2.82-2.72c0-1.5-1.26-2.73-2.82-2.73z"/></defs><g><g transform="translate(-386 -65)"><use fill="#cd6119" xlink:href="#rreha"/></g></g></svg>