<svg xmlns="http://www.w3.org/2000/svg" xmlns:xlink="http://www.w3.org/1999/xlink" width="90" height="114" viewBox="0 0 90 114"><defs><path id="8343a" d="M198 907.85v58.74h-3.9v5.33h-20.21l19.26 35.51-3.16 1.57-12.79-23.58h-9.17v-3.4h7.33l-5.47-10.1h-13.11v29.6h-3.56v-16.1h-20.19L120.25 1009l-3.16-1.57 19.26-35.5H115.9v-5.34H112v-58.74h36.72V899h12.8v8.85zm-45.72 0h5.68v-5.45h-5.68zm.94 74.17v-10.1h-12.87l-5.47 10.1zm37.32-13.5v-1.93h-71.08v1.93zm3.9-57.27h-78.89v51.94h78.9zm-34.1 70.77h3.54v3.4h-3.55zM142.8 930.3v-7.71h-13.03v15.2h13.03v-2.5h3.55v12.93h-3.55v-7.03h-13.03v10.66h19.19v3.4H126.2V919.2h28.67v3.4h-8.53v7.71zm40.99-11.11v36.06h-29.62v-3.4h9.48v-12.82h13.26v3.4h-9.7v9.42h13.02v-22.23h-15.75v5.67h-3.56v-9.07h3.44v-3.63h-4.27v-3.4zm-14.22 3.4h-1.66v3.63h1.66zm5.21 0h-1.66v3.63h1.66zm5.45 0h-1.9v3.63h1.9z"/></defs><g><g transform="translate(-110 -897)"><use fill="#8cc6b6" xlink:href="#8343a"/></g></g></svg>