<svg xmlns="http://www.w3.org/2000/svg" xmlns:xlink="http://www.w3.org/1999/xlink" width="25" height="15" viewBox="0 0 25 15"><defs><path id="e29va" d="M339.13 78.74c-.63-.76-1.36-1.41-2.06-2.1-.63-.62-.67-.98-.16-1.7.55-.77 1.14-1.52 1.7-2.3.52-.73 1.05-1.45 1.32-2.32.18-.55.02-.8-.54-.9a1.7 1.7 0 0 0-.3-.01h-3.32c-.41-.01-.64.17-.78.54-.2.5-.4.99-.63 1.47a12.09 12.09 0 0 1-1.95 3.02c-.18.2-.39.45-.7.35-.37-.14-.49-.78-.48-1v-3.88c-.08-.55-.2-.8-.74-.91h-3.46c-.46 0-.7.18-.94.47-.14.17-.18.28.1.34.58.1.9.48 1 1.06.13.93.12 1.87.04 2.8-.02.27-.07.54-.18.8-.16.4-.43.48-.79.23a3.22 3.22 0 0 1-.77-.85 18.86 18.86 0 0 1-2.03-3.8c-.15-.4-.42-.63-.83-.63-1-.02-2-.02-3 0-.6.01-.77.3-.53.86a37.7 37.7 0 0 0 3.88 6.99 9.7 9.7 0 0 0 2.95 2.78 7.76 7.76 0 0 0 4.37.96c.73-.04.95-.23.98-.96.02-.5.08-1 .32-1.44.24-.44.6-.53 1.02-.25.2.14.38.31.55.5.4.44.8.9 1.22 1.34.53.55 1.16.87 1.95.8h3.06c.5-.02.75-.64.47-1.2-.2-.38-.46-.73-.74-1.06z"/></defs><g><g transform="translate(-317 -68)"><use fill="#cd6119" xlink:href="#e29va"/></g></g></svg>